Coordinates
version=1
nRows=21
nColumns=24
inDegrees=yes

Units are S.I. units (second, meters, Newtons, ...)
If the header above contains a line with 'inDegrees', this indicates whether rotational values are in degrees (yes) or radians (no).

endheader
time	pelvis_tilt	pelvis_list	pelvis_rotation	pelvis_tx	pelvis_ty	pelvis_tz	hip_flexion_r	hip_adduction_r	hip_rotation_r	knee_angle_r	ankle_angle_r	subtalar_angle_r	mtp_angle_r	hip_flexion_l	hip_adduction_l	hip_rotation_l	knee_angle_l	ankle_angle_l	subtalar_angle_l	mtp_angle_l	lumbar_extension	lumbar_bending	lumbar_rotation
4.200000	11.219073	2.417358	-180.511997	0.220902	0.847288	-1.204815	18.538681	-11.437408	-32.398368	-14.506029	0.394754	10.478818	0.000000	20.336787	-17.569437	-28.633224	-18.015874	2.450040	9.757180	0.000000	1.686022	1.871186	1.073530
4.205000	11.221306	2.434423	-180.527062	0.220961	0.847322	-1.204737	18.529260	-11.412658	-32.396845	-14.469948	0.393438	10.489537	0.000000	20.344011	-17.587601	-28.632022	-18.027921	2.449256	9.746379	0.000000	1.703641	1.893964	1.117638
4.210000	11.198378	2.456651	-180.521317	0.221048	0.847330	-1.204782	18.493444	-11.381813	-32.396790	-14.444833	0.389799	10.497790	0.000000	20.342106	-17.613212	-28.622900	-18.051590	2.454716	9.720068	0.000000	1.688579	1.906629	1.125461
4.215000	11.182881	2.453718	-180.491867	0.221306	0.847333	-1.204880	18.477841	-11.381923	-32.399580	-14.430762	0.389687	10.492062	0.000000	20.370100	-17.613119	-28.591814	-18.084664	2.452522	9.725515	0.000000	1.674524	1.883814	1.141943
4.220000	11.155585	2.438789	-180.449162	0.221370	0.847371	-1.204822	18.433211	-11.408835	-32.444270	-14.408549	0.382283	10.463156	0.000000	20.364335	-17.576286	-28.504314	-18.096060	2.489548	9.736146	0.000000	1.665005	1.879791	1.103810
4.225000	11.111378	2.421515	-180.447062	0.221304	0.847424	-1.204727	18.393077	-11.444664	-32.497463	-14.430172	0.393926	10.446904	0.000000	20.319652	-17.562469	-28.523626	-18.122403	2.472519	9.722805	0.000000	1.647462	1.907173	1.066781
4.230000	11.087332	2.469373	-180.433465	0.221454	0.847451	-1.204861	18.376818	-11.391011	-32.547279	-14.438051	0.411669	10.448105	0.000000	20.329129	-17.621879	-28.477056	-18.138769	2.450165	9.729626	0.000000	1.630060	1.920826	1.132506
4.235000	11.070249	2.475545	-180.411877	0.221545	0.847445	-1.204840	18.362953	-11.389248	-32.555032	-14.439539	0.401646	10.453720	0.000000	20.348253	-17.633771	-28.457812	-18.177432	2.446056	9.729873	0.000000	1.611690	1.901925	1.176114
4.240000	11.059440	2.477371	-180.384024	0.221677	0.847435	-1.204881	18.348653	-11.385077	-32.543049	-14.426005	0.390591	10.466741	0.000000	20.372004	-17.641193	-28.438500	-18.205857	2.444895	9.734181	0.000000	1.606190	1.882068	1.180696
4.245000	11.040517	2.480024	-180.352971	0.221831	0.847421	-1.204905	18.324051	-11.379923	-32.518211	-14.410521	0.383798	10.479161	0.000000	20.389120	-17.642937	-28.388707	-18.234294	2.464561	9.745200	0.000000	1.582536	1.866667	1.156002
4.250000	11.021418	2.489254	-180.344714	0.222012	0.847422	-1.204910	18.320270	-11.373680	-32.511854	-14.428089	0.383734	10.480855	0.000000	20.404429	-17.660591	-28.379495	-18.268202	2.454410	9.735815	0.000000	1.557511	1.862610	1.178772
4.255000	10.999415	2.500728	-180.351395	0.222180	0.847439	-1.204940	18.316771	-11.363283	-32.511814	-14.452965	0.400020	10.477655	0.000000	20.409366	-17.683005	-28.357553	-18.311389	2.451897	9.721751	0.000000	1.534314	1.869543	1.203856
4.260000	10.974008	2.514990	-180.346466	0.222341	0.847404	-1.204895	18.308556	-11.363994	-32.527380	-14.482407	0.432912	10.464916	0.000000	20.422749	-17.703979	-28.321922	-18.372252	2.464065	9.710851	0.000000	1.490617	1.872365	1.270440
4.265000	10.944487	2.519457	-180.344018	0.222513	0.847401	-1.204898	18.300229	-11.373327	-32.532077	-14.518697	0.453605	10.457210	0.000000	20.432945	-17.718213	-28.293182	-18.436313	2.480417	9.698739	0.000000	1.454555	1.874384	1.304048
4.270000	10.919438	2.527292	-180.312518	0.222700	0.847361	-1.204953	18.295036	-11.379995	-32.548414	-14.560590	0.505107	10.442781	0.000000	20.466890	-17.732206	-28.235361	-18.501648	2.514912	9.669893	0.000000	1.418394	1.869819	1.293063
4.275000	10.898037	2.529816	-180.286453	0.222885	0.847315	-1.204975	18.304424	-11.393199	-32.535569	-14.613112	0.519556	10.437035	0.000000	20.502283	-17.736900	-28.169048	-18.563406	2.544465	9.632655	0.000000	1.378718	1.859239	1.295956
4.280000	10.903570	2.555684	-180.296767	0.222997	0.847258	-1.204932	18.355745	-11.385997	-32.510771	-14.690585	0.537822	10.437850	0.000000	20.553294	-17.775590	-28.138583	-18.627406	2.556666	9.582631	0.000000	1.378572	1.888342	1.344448
4.285000	10.867967	2.551019	-180.262015	0.223335	0.847241	-1.204971	18.382543	-11.414918	-32.482780	-14.795076	0.590282	10.400845	0.000000	20.607980	-17.786821	-28.067130	-18.729263	2.552081	9.563633	0.000000	1.291192	1.860672	1.333403
4.290000	10.883523	2.551317	-180.278427	0.223500	0.847138	-1.204889	18.461151	-11.440601	-32.414548	-14.905080	0.624225	10.405723	0.000000	20.677309	-17.802434	-28.029519	-18.829223	2.612686	9.514975	0.000000	1.294182	1.865147	1.379866
4.295000	10.829967	2.518042	-180.206489	0.223888	0.847097	-1.204917	18.463397	-11.509505	-32.369898	-15.019639	0.685408	10.361736	0.000000	20.728161	-17.773738	-27.916487	-18.948489	2.625089	9.498807	0.000000	1.185830	1.793904	1.332405
4.300000	10.802329	2.509534	-180.193744	0.224248	0.846974	-1.204960	18.513249	-11.546014	-32.284996	-15.154004	0.758313	10.327079	0.000000	20.793456	-17.784945	-27.831666	-19.067778	2.707682	9.459892	0.000000	1.110736	1.767192	1.352212
